<svg xmlns="http://www.w3.org/2000/svg" width="20" height="23" viewBox="0 0 20 23"><g><g><path fill="#e25050" d="M1.482 2.969h3.706v1.856c0 .614.276 1.113.618 1.113h6.176c.341 0 .618-.499.618-1.113V2.969h3.706c.818 0 1.482.665 1.482 1.485v8.597a5.934 5.934 0 0 0-8.153 5.507 5.92 5.92 0 0 0 1.3 3.711H1.483A1.484 1.484 0 0 1 0 20.784V4.454c0-.82.663-1.485 1.482-1.485zm14.082 11.14a4.444 4.444 0 0 1 4.441 4.448 4.444 4.444 0 0 1-4.44 4.448 4.444 4.444 0 0 1-4.441-4.448 4.444 4.444 0 0 1 4.44-4.447zm2.719 3.148a.92.92 0 0 0-1.137 0l-2.28 1.903-.424-.424a.652.652 0 0 0-.923 0 .655.655 0 0 0 0 .925l.58.581a.62.62 0 0 0 .204.337.89.89 0 0 0 .806.158.837.837 0 0 0 .331-.158l2.843-2.373a.595.595 0 0 0 0-.949zM11.117 5.196H6.67a.742.742 0 0 1-.74-.742V2.969c0-.41.331-.743.74-.743h.045a1.568 1.568 0 0 1-.045-.37C6.67.83 7.666 0 8.894 0c1.228 0 2.223.83 2.223 1.856 0 .127-.015.25-.045.37h.045c.41 0 .741.333.741.743v1.485c0 .41-.331.742-.74.742zM8.153 2.969h1.482V1.484H8.153z"/></g></g></svg>