<svg xmlns="http://www.w3.org/2000/svg" width="19" height="23" viewBox="0 0 19 23"><g><g><path fill="#e25050" d="M15.2 7.66c-.746 0-1.43-.27-1.958-.719a4.606 4.606 0 0 0 1.198-3.108c0-.732-.17-1.424-.471-2.039a3.016 3.016 0 0 1 1.23-.26 3.053 3.053 0 0 1 3.044 3.062A3.054 3.054 0 0 1 15.2 7.66zM19 9.313l-.597 5.402L16.72 16.1v4.6s-1.01.766-1.9.766c-.901 0-1.9-.766-1.9-.766v-3.834l2.28-1.533.75-6.807c1.524.226 3.05.787 3.05.787zM6.08 20.7s-1.01.766-1.9.766c-.901 0-1.9-.766-1.9-.766v-4.6L.76 14.566 0 9.2s2.066-.665 3.801-.757l.759 6.89 1.52 1.022zM4.56 7.66a3.054 3.054 0 0 1-3.043-3.064A3.053 3.053 0 0 1 4.56 1.533c.438 0 .855.093 1.231.261a4.614 4.614 0 0 0-.471 2.039c0 1.198.454 2.29 1.198 3.108a3.019 3.019 0 0 1-1.958.719zm0 1.54s3.033-.767 5.32-.767c2.273 0 5.32.767 5.32.767l-.76 6.133-2.28 1.533v5.367S11.013 23 9.88 23c-1.147 0-2.28-.767-2.28-.767v-5.367l-2.28-1.533zM9.88 0c2.098 0 3.8 1.716 3.8 3.833s-1.702 3.833-3.8 3.833c-2.099 0-3.8-1.716-3.8-3.833S7.78 0 9.88 0z"/></g></g></svg>