<svg xmlns="http://www.w3.org/2000/svg" width="26" height="22" viewBox="0 0 26 22"><g><g><path fill="#e25050" d="M20.428 8.228c-3.59 0-6.5 2.896-6.5 6.467 0 2.035.947 3.848 2.424 5.033C14.442 21.128 13 22.01 13 22.01S0 14.08 0 7.69C0 3.84 2.399-.01 6.964-.01 11.143-.01 13 3.927 13 3.927S14.625-.01 19.035-.01c4.411 0 6.887 3.773 6.887 7.7 0 .877-.253 1.78-.665 2.687a6.492 6.492 0 0 0-4.829-2.149zm0 .924c3.078 0 5.572 2.482 5.572 5.543 0 3.062-2.495 5.544-5.572 5.544s-5.571-2.482-5.571-5.544c0-3.061 2.495-5.543 5.572-5.543zm-2.785 6.467H19.5v1.848h1.857v-1.848h1.857v-1.847h-1.857v-1.848H19.5v1.848h-1.857z"/></g></g></svg>