<svg xmlns="http://www.w3.org/2000/svg" width="16" height="22" viewBox="0 0 16 22"><g><g><path fill="#e25050" d="M15.972 4.354H0l.016-1.709H1.29L3.993 0h8.097l2.646 2.645h1.276zm-6.6-2.59H6.71v.881h2.662zm5.174 9.699h-3.002a3.98 3.98 0 0 0-3.54-2.168 3.98 3.98 0 0 0-3.54 2.168H1.518L.943 5.29H15.14zm-8.723 1.763c0-1.217.993-2.204 2.219-2.204 1.225 0 2.218.987 2.218 2.204a2.211 2.211 0 0 1-2.218 2.205 2.212 2.212 0 0 1-2.219-2.205zm2.182 4.005c1.594 0 2.96-.935 3.6-2.278h2.605l-.678 7.036H2.495l-.654-7.036h2.564a3.985 3.985 0 0 0 3.6 2.278z"/></g></g></svg>