<svg xmlns="http://www.w3.org/2000/svg" width="29" height="29" viewBox="0 0 29 29"><g><g><path fill="#fff" d="M4.257 18.305L19.142 3.42l6.37 6.37-14.886 14.885zM19.827 7.01l-.697-.698L7.149 18.293l.698.698zm1.397 1.396l-.698-.698-11.981 11.98.698.699zm1.396 1.396l-.698-.698L9.94 21.084l.698.699zM21.994.608a1.995 1.995 0 0 1 2.82-.012l3.512 3.51c.776.776.77 2.04-.012 2.822l-2.17 2.169-6.32-6.32zM3.766 19.135l6.031 6.03-5.284 1.877-2.623-2.623zm-.254 8.234L.446 28.486l1.117-3.066z"/></g></g></svg>